HIERARCHY
ROOT Hips
{
	OFFSET 0.000000 88.474243 0.000000
	CHANNELS 6 Xposition Yposition Zposition Zrotation Yrotation Xrotation 
	JOINT Hips_Spine
	{
		OFFSET 0.000000 0.000000 0.000000
		CHANNELS 3 Zrotation Yrotation Xrotation
		JOINT Spine
		{
			OFFSET 0.005100 8.711998 -0.691000
			CHANNELS 3 Zrotation Yrotation Xrotation
			JOINT Spine1
			{
				OFFSET -0.009200 8.660301 -1.275000
				CHANNELS 3 Zrotation Yrotation Xrotation
				JOINT Spine2
				{
					OFFSET 0.006300 9.852501 -1.857000
					CHANNELS 3 Zrotation Yrotation Xrotation
					JOINT Spine2_Neck
					{
						OFFSET 0.000000 0.000000 0.000000
						CHANNELS 3 Zrotation Yrotation Xrotation
						JOINT Neck
						{
							OFFSET 0.016300 11.420799 -0.263300
							CHANNELS 3 Zrotation Yrotation Xrotation
							End Site #name: Head
							{
								OFFSET -0.019200 9.262405 2.362500
							}
						}
					}
					JOINT Spine2_LeftShoulder
					{
						OFFSET 0.000000 0.000000 0.000000
						CHANNELS 3 Zrotation Yrotation Xrotation
						JOINT LeftShoulder
						{
							OFFSET 5.616900 6.732201 -0.345700
							CHANNELS 3 Zrotation Yrotation Xrotation
							JOINT LeftArm
							{
								OFFSET 10.664888 -0.183372 -2.440700
								CHANNELS 3 Zrotation Yrotation Xrotation
								JOINT LeftForeArm
								{
									OFFSET 27.459126 0.000000 0.000000
									CHANNELS 3 Zrotation Yrotation Xrotation
									End Site #name: LeftHand
									{
										OFFSET 21.306858 0.000000 0.000000
									}
								}
							}
						}
					}
					JOINT Spine2_RightShoulder
					{
						OFFSET 0.000000 0.000000 0.000000
						CHANNELS 3 Zrotation Yrotation Xrotation
						JOINT RightShoulder
						{
							OFFSET -5.580300 6.737503 -0.344400
							CHANNELS 3 Zrotation Yrotation Xrotation
							JOINT RightArm
							{
								OFFSET -10.679335 -0.188484 -2.383900
								CHANNELS 3 Zrotation Yrotation Xrotation
								JOINT RightForeArm
								{
									OFFSET -27.503529 0.000000 0.000000
									CHANNELS 3 Zrotation Yrotation Xrotation
									End Site #name: RightHand
									{
										OFFSET -21.306808 0.000000 0.000000
									}
								}
							}
						}
					}
				}
			}
		}
	}
	JOINT Hips_LeftUpLeg
	{
		OFFSET 0.000000 0.000000 0.000000
		CHANNELS 3 Zrotation Yrotation Xrotation
		JOINT LeftUpLeg
		{
			OFFSET 6.857700 -6.739601 0.312100
			CHANNELS 3 Zrotation Yrotation Xrotation
			JOINT LeftLeg
			{
				OFFSET -0.367590 -34.731552 -4.572400
				CHANNELS 3 Zrotation Yrotation Xrotation
				End Site #name: LeftFoot
				{
					OFFSET 0.367590 -34.656704 -6.067400
				}
			}
		}
	}
	JOINT Hips_RightUpLeg
	{
		OFFSET 0.000000 0.000000 0.000000
		CHANNELS 3 Zrotation Yrotation Xrotation
		JOINT RightUpLeg
		{
			OFFSET -6.876100 -6.733299 0.301000
			CHANNELS 3 Zrotation Yrotation Xrotation
			JOINT RightLeg
			{
				OFFSET 0.347353 -34.795158 -4.515900
				CHANNELS 3 Zrotation Yrotation Xrotation
				End Site #name: RightFoot
				{
					OFFSET -0.347353 -34.589367 -6.070300
				}
			}
		}
	}
}
MOTION
Frames: 17
Frame Time: 0.041667
0.110477 0.026585 0.045371 -0.046045 9.553908 -7.568441 0.000000 -0.000000 0.000000 -0.672093 -3.769837 4.906516 0.103653 -1.289368 2.541743 0.000000 0.000000 0.000000 0.100046 -0.854440 0.357311 1.444214 0.346991 -0.613929 0.821481 -1.630249 0.444413 -12.397493 -1.321478 0.865418 -55.822995 -2.682916 31.096666 0.094336 -31.419164 1.027856 0.165280 -0.868832 1.278564 19.430290 11.829475 3.993086 53.227165 -6.745680 -4.402590 0.806621 68.040439 1.459766 0.000000 0.000000 -0.000000 -1.497138 12.526166 -5.919758 3.327724 3.788903 20.167532 0.000000 0.000000 0.000000 -1.070456 -10.753090 -5.406489 1.325737 8.504148 4.235630 
0.307053 0.019871 -0.022915 0.716174 12.877380 -8.541187 0.000000 -0.000000 0.000000 -0.843862 -3.205759 2.762398 0.413955 -0.740952 1.825284 0.000000 0.000000 0.000000 0.032868 -0.690076 0.468561 1.930571 0.812753 -1.900284 0.447836 -0.956560 -0.081693 -14.103359 -0.523192 0.461138 -55.482663 -5.547206 31.504332 -0.386499 -32.564402 0.895604 0.159268 -0.531160 0.732622 20.060566 10.068623 3.359946 56.257341 -0.773092 1.957887 0.223104 63.403494 0.584443 0.000000 0.000000 -0.000000 -2.211042 13.296390 -5.122603 2.415448 5.135348 20.259881 0.000000 -0.000000 0.000000 -3.583268 -11.993590 -4.402032 0.979461 7.358092 5.316098 
0.464804 0.018226 -0.072113 1.253682 13.176084 -8.576457 0.000000 0.000000 0.000000 -0.619584 -2.354729 2.031536 0.250659 -0.491104 1.560167 0.000000 0.000000 0.000000 0.054699 -0.672279 0.322274 2.754478 2.007184 -3.924563 0.055534 -0.720540 -0.121062 -16.047309 1.391119 0.275747 -56.871422 -1.429949 25.013360 -0.512900 -30.263537 0.973702 -0.152541 -0.368264 0.541028 20.543666 10.045775 3.211126 54.989043 0.970506 3.258383 0.146133 48.587962 0.137247 0.000000 0.000000 -0.000000 -2.772639 12.855395 -5.519429 2.808609 5.981679 20.678618 0.000000 -0.000000 0.000000 -4.863216 -11.700277 -4.478931 1.891055 6.718156 6.276054 
0.662131 0.008746 -0.131575 1.289852 13.031874 -8.538853 0.000000 0.000000 0.000000 -1.091000 -1.995654 2.134851 0.185627 -0.514497 1.648263 0.000000 0.000000 0.000000 0.053520 -0.683836 0.412024 3.013372 2.349330 -4.271648 -0.040492 -0.708076 -0.189281 -17.080852 1.804535 -0.017056 -57.220943 1.516659 24.571196 -0.555997 -26.925321 1.018929 -0.242366 -0.334439 0.530975 21.014328 9.884039 3.287547 54.438087 4.467396 3.475621 0.230733 43.534498 0.173974 0.000000 0.000000 -0.000000 -3.031923 12.338680 -5.774158 3.252964 6.528449 20.667116 0.000000 -0.000000 0.000000 -5.388386 -11.523249 -5.107272 2.256032 6.734210 7.774188 
0.901302 -0.001300 -0.187790 1.141156 13.172631 -8.555163 0.000000 0.000000 0.000000 -1.610831 -1.858033 2.379525 0.079387 -0.550411 1.784351 0.000000 0.000000 0.000000 -0.039298 -0.744551 0.469316 3.098585 2.387561 -4.118422 -0.110145 -0.784451 -0.177516 -18.137041 2.469738 -0.228146 -56.600801 2.225800 24.754811 -0.591929 -24.930923 0.989098 -0.363278 -0.343826 0.654692 21.586276 9.505033 3.280974 54.756728 6.032482 3.197603 0.311622 38.506397 0.102922 0.000000 0.000000 -0.000000 -3.100311 12.094099 -6.056304 3.634341 6.900346 20.988803 0.000000 -0.000000 0.000000 -5.660490 -11.673200 -5.475744 2.633004 7.203770 8.852322 
1.160830 -0.011260 -0.242572 0.982624 13.334477 -8.616468 0.000000 0.000000 0.000000 -2.175129 -1.941994 2.757611 -0.058570 -0.604139 1.955834 0.000000 0.000000 0.000000 -0.184931 -0.843310 0.546473 3.141619 2.310354 -3.905900 -0.192771 -0.871346 -0.026148 -18.981675 3.075781 -0.315975 -55.827255 2.179832 25.845494 -0.608833 -23.784582 0.999746 -0.494434 -0.389881 0.805363 22.083985 9.465029 3.336480 55.165681 6.332249 2.258926 0.382154 36.240690 0.090097 0.000000 0.000000 -0.000000 -3.156317 12.044470 -6.280068 3.837708 6.988261 21.416281 0.000000 -0.000000 0.000000 -5.805318 -11.819164 -5.559682 2.974825 7.892954 9.400042 
1.419971 -0.018371 -0.296306 0.857543 13.489610 -8.680070 0.000000 0.000000 0.000000 -2.490070 -2.125461 3.083925 -0.164536 -0.679324 2.160885 0.000000 0.000000 0.000000 -0.328972 -0.937394 0.663494 3.146586 2.160997 -3.744062 -0.258527 -0.940560 0.271940 -19.543906 3.537539 -0.363176 -55.177800 1.959028 26.916583 -0.624128 -22.793396 1.031407 -0.612010 -0.445691 0.963335 22.519665 9.572235 3.422836 55.529442 6.353927 0.945488 0.425265 35.270264 0.132258 0.000000 0.000000 -0.000000 -3.233562 12.014356 -6.447937 3.922841 6.925148 21.791444 0.000000 -0.000000 0.000000 -5.955637 -11.991053 -5.523629 3.255107 8.401700 9.672772 
1.659196 -0.018811 -0.347328 0.739382 13.609032 -8.702682 0.000000 0.000000 0.000000 -2.688333 -2.274049 3.295153 -0.232290 -0.736106 2.334866 0.000000 0.000000 0.000000 -0.436777 -1.004719 0.790993 3.155988 2.039074 -3.579262 -0.288971 -0.989851 0.595187 -19.930594 3.872633 -0.388666 -54.724499 1.948651 27.535834 -0.635168 -22.245246 1.034964 -0.676796 -0.496387 1.085528 22.771602 9.661702 3.475417 55.910698 6.248310 -0.087858 0.459020 35.482081 0.177888 0.000000 0.000000 -0.000000 -3.327237 11.984372 -6.570458 3.976505 6.823048 21.974526 0.000000 0.000000 0.000000 -6.089845 -12.165365 -5.517749 3.450490 8.633919 9.859221 
1.859328 -0.012647 -0.394546 0.608628 13.627998 -8.680587 0.000000 0.000000 0.000000 -2.791797 -2.347566 3.421886 -0.282247 -0.759948 2.442035 0.000000 0.000000 0.000000 -0.512984 -1.037268 0.902626 3.126344 1.962149 -3.490400 -0.307064 -1.006671 0.802757 -20.192642 4.120536 -0.316385 -54.383484 2.117192 27.693640 -0.646130 -22.016934 1.013730 -0.715566 -0.527598 1.157658 22.850390 9.682980 3.486022 56.238429 6.138615 -0.771081 0.491624 35.813715 0.205677 0.000000 0.000000 -0.000000 -3.380061 11.939484 -6.693953 4.037543 6.768398 22.098979 0.000000 0.000000 0.000000 -6.173785 -12.288756 -5.571838 3.574281 8.781046 10.000187 
2.017768 -0.002037 -0.438929 0.487334 13.530582 -8.638591 0.000000 0.000000 0.000000 -2.868158 -2.372380 3.493450 -0.314438 -0.753742 2.482633 0.000000 0.000000 0.000000 -0.563632 -1.043267 0.958378 3.086461 1.929770 -3.483779 -0.322204 -0.991927 0.901566 -20.396448 4.257851 -0.211278 -54.193545 2.387917 27.472958 -0.650962 -21.957443 0.991619 -0.745492 -0.524010 1.185294 22.829384 9.583501 3.439943 56.467760 6.164105 -1.257594 0.505842 35.901525 0.218315 0.000000 0.000000 -0.000000 -3.379043 11.925042 -6.837086 4.134844 6.802977 22.241776 0.000000 0.000000 0.000000 -6.211076 -12.368927 -5.651379 3.602212 8.838232 10.093682 
2.132308 0.011504 -0.481091 0.379116 13.372886 -8.596914 0.000000 0.000000 0.000000 -2.908912 -2.364249 3.539183 -0.335349 -0.728012 2.477100 0.000000 0.000000 0.000000 -0.597601 -1.030403 0.980068 3.054644 1.924071 -3.519652 -0.332818 -0.976632 0.919787 -20.530452 4.289526 -0.130030 -54.119911 2.703601 27.179684 -0.656257 -21.998557 0.973772 -0.772474 -0.509209 1.185712 22.744616 9.412072 3.348391 56.597651 6.194728 -1.410235 0.512745 35.504032 0.210770 0.000000 0.000000 -0.000000 -3.350291 11.909529 -6.968832 4.254402 6.894557 22.375107 0.000000 0.000000 0.000000 -6.212361 -12.386200 -5.738117 3.625903 8.900006 10.171101 
2.200360 0.026560 -0.521564 0.296999 13.197088 -8.564737 0.000000 0.000000 0.000000 -2.906382 -2.327880 3.565481 -0.348094 -0.694262 2.443072 0.000000 0.000000 0.000000 -0.616108 -1.007348 0.983724 3.025649 1.905185 -3.528607 -0.339535 -0.956047 0.899024 -20.583221 4.244685 -0.075870 -54.216229 2.953129 26.956537 -0.655302 -22.136612 0.962357 -0.794211 -0.485292 1.175216 22.645230 9.290759 3.279564 56.605489 6.228078 -1.380774 0.510593 34.857119 0.197040 0.000000 0.000000 -0.000000 -3.309655 11.902436 -7.080369 4.385966 7.008675 22.496631 0.000000 0.000000 0.000000 -6.188442 -12.367593 -5.796099 3.617493 8.924180 10.188035 
2.219027 0.041843 -0.561399 0.243765 13.038609 -8.541251 0.000000 0.000000 0.000000 -2.867063 -2.284963 3.583272 -0.351505 -0.657760 2.397141 0.000000 0.000000 0.000000 -0.620842 -0.980073 0.976070 3.008153 1.881739 -3.496949 -0.341908 -0.931635 0.861789 -20.555968 4.118749 -0.051627 -54.415036 3.103026 26.856847 -0.652897 -22.294071 0.954514 -0.808151 -0.459483 1.162320 22.565685 9.216090 3.234382 56.550302 6.185278 -1.156267 0.504519 34.178486 0.182323 0.000000 0.000000 -0.000000 -3.262899 11.900108 -7.168943 4.516908 7.134886 22.584998 0.000000 0.000000 0.000000 -6.147454 -12.338617 -5.799663 3.611800 9.010606 10.120248 
2.193160 0.056747 -0.602535 0.210837 12.935876 -8.523740 0.000000 0.000000 0.000000 -2.796476 -2.244319 3.596057 -0.346037 -0.623828 2.347414 0.000000 0.000000 0.000000 -0.610680 -0.952680 0.971150 2.993962 1.858567 -3.432368 -0.337088 -0.908389 0.830529 -20.489017 3.962585 -0.041011 -54.657186 3.240861 26.898539 -0.649648 -22.408636 0.951779 -0.809779 -0.436369 1.153773 22.516229 9.191896 3.217461 56.453151 6.036340 -0.863850 0.494537 33.627992 0.169858 0.000000 0.000000 -0.000000 -3.198724 11.892165 -7.251394 4.645638 7.285033 22.668537 0.000000 0.000000 0.000000 -6.078344 -12.307641 -5.769942 3.603566 9.143626 9.992012 
2.127253 0.070278 -0.647234 0.184676 12.898281 -8.509463 0.000000 0.000000 -0.000000 -2.705058 -2.218473 3.608372 -0.328976 -0.593258 2.297355 0.000000 0.000000 0.000000 -0.583337 -0.926063 0.972416 2.985246 1.841821 -3.340051 -0.318767 -0.887931 0.803452 -20.408298 3.786726 -0.031766 -54.914924 3.358718 26.998511 -0.647200 -22.448750 0.951611 -0.793706 -0.416958 1.151302 22.484028 9.202498 3.219251 56.347802 5.807837 -0.549466 0.482432 33.373094 0.167734 0.000000 0.000000 -0.000000 -3.104189 11.871156 -7.339115 4.769903 7.446424 22.744395 0.000000 0.000000 0.000000 -5.970758 -12.300741 -5.740325 3.593863 9.304336 9.855049 
2.026279 0.081850 -0.697392 0.152151 12.927192 -8.496400 0.000000 0.000000 -0.000000 -2.589447 -2.210581 3.615738 -0.300888 -0.567423 2.251504 0.000000 0.000000 0.000000 -0.536986 -0.902373 0.980796 2.980195 1.831562 -3.224463 -0.288695 -0.870436 0.786316 -20.309845 3.605982 -0.016854 -55.135672 3.455604 27.119795 -0.647504 -22.443459 0.954917 -0.757678 -0.402200 1.153494 22.458487 9.243502 3.234208 56.241980 5.481851 -0.239920 0.470366 33.385077 0.170338 0.000000 0.000000 -0.000000 -2.971093 11.834237 -7.446844 4.890995 7.610955 22.827207 0.000000 0.000000 0.000000 -5.817482 -12.314657 -5.716851 3.577616 9.443932 9.713585 
1.895140 0.090955 -0.754611 0.110163 13.009062 -8.476815 0.000000 0.000000 -0.000000 -2.444276 -2.221523 3.621380 -0.259874 -0.545377 2.207177 0.000000 0.000000 0.000000 -0.475794 -0.879869 0.993515 2.967010 1.825276 -3.094139 -0.245347 -0.854349 0.775397 -20.204946 3.437665 0.011990 -55.346643 3.561672 27.245595 -0.647862 -22.409589 0.960623 -0.706294 -0.390003 1.159559 22.428811 9.292116 3.252667 56.136076 5.093161 0.068197 0.456267 33.626643 0.177893 0.000000 0.000000 -0.000000 -2.788734 11.839188 -7.565199 4.996815 7.728958 22.890846 0.000000 0.000000 0.000000 -5.618581 -12.330233 -5.727457 3.546990 9.522250 9.588177 
